HIERARCHY
ROOT hip
{
  OFFSET 0 0 0
  CHANNELS 6 Xposition Yposition Zposition Zrotation Yrotation Xrotation
  JOINT abdomen
  {
    OFFSET 0 20.6881 -0.73152
    CHANNELS 3 Zrotation Xrotation Yrotation
    JOINT chest
    {
      OFFSET 0 11.7043 -0.48768
      CHANNELS 3 Zrotation Xrotation Yrotation
      JOINT neck
      {
        OFFSET 0 22.1894 -2.19456
        CHANNELS 3 Zrotation Xrotation Yrotation
        JOINT head
        {
          OFFSET -0.24384 7.07133 1.2192
          CHANNELS 3 Zrotation Xrotation Yrotation
          JOINT leftEye
          {
            OFFSET 4.14528 8.04674 8.04672
            CHANNELS 3 Zrotation Xrotation Yrotation
            End Site
            {
              OFFSET 1 0 0
            }
          }
          JOINT rightEye
          {
            OFFSET -3.6576 8.04674 8.04672
            CHANNELS 3 Zrotation Xrotation Yrotation
            End Site
            {
              OFFSET 1 0 0
            }
          }
        }
      }
      JOINT rCollar
      {
        OFFSET -2.68224 19.2634 -4.8768
        CHANNELS 3 Zrotation Xrotation Yrotation
        JOINT rShldr
        {
          OFFSET -8.77824 -1.95073 1.46304
          CHANNELS 3 Zrotation Xrotation Yrotation
          JOINT rForeArm
          {
            OFFSET -28.1742 -1.7115 0.48768
            CHANNELS 3 Zrotation Xrotation Yrotation
            JOINT rHand
            {
              OFFSET -22.5879 0.773209 7.07136
              CHANNELS 3 Zrotation Xrotation Yrotation
              JOINT rThumb1
              {
                OFFSET -1.2192 -0.487915 3.41376
                CHANNELS 3 Zrotation Xrotation Yrotation
                JOINT rThumb2
                {
                  OFFSET -3.37035 -0.52449 3.41376
                  CHANNELS 3 Zrotation Xrotation Yrotation
                  End Site
                  {
                    OFFSET -1.78271 -1.18214 1.43049
                  }
                }
              }
              JOINT rIndex1
              {
                OFFSET -7.75947 0.938293 5.60832
                CHANNELS 3 Zrotation Xrotation Yrotation
                JOINT rIndex2
                {
                  OFFSET -2.54057 -0.884171 1.56538
                  CHANNELS 3 Zrotation Xrotation Yrotation
                  End Site
                  {
                    OFFSET -1.62519 -0.234802 1.16502
                  }
                }
              }
              JOINT rMid1
              {
                OFFSET -8.24714 1.18213 3.41376
                CHANNELS 3 Zrotation Xrotation Yrotation
                JOINT rMid2
                {
                  OFFSET -3.10165 -0.590103 1.0647
                  CHANNELS 3 Zrotation Xrotation Yrotation
                  End Site
                  {
                    OFFSET -2.48547 -0.328903 0.83742
                  }
                }
              }
              JOINT rRing1
              {
                OFFSET -8.82822 0.546677 1.51678
                CHANNELS 3 Zrotation Xrotation Yrotation
                JOINT rRing2
                {
                  OFFSET -2.60934 -0.819778 -0.0198488
                  CHANNELS 3 Zrotation Xrotation Yrotation
                  End Site
                  {
                    OFFSET -2.33842 -0.294052 0.168128
                  }
                }
              }
              JOINT rPinky1
              {
                OFFSET -8.27202 -0.0477905 -0.4584
                CHANNELS 3 Zrotation Xrotation Yrotation
                JOINT rPinky2
                {
                  OFFSET -1.82734 -0.647385 -0.700984
                  CHANNELS 3 Zrotation Xrotation Yrotation
                  End Site
                  {
                    OFFSET -1.69225 -0.51767 -0.607171
                  }
                }
              }
            }
          }
        }
      }
      JOINT lCollar
      {
        OFFSET 2.68224 19.2634 -4.8768
        CHANNELS 3 Zrotation Xrotation Yrotation
        JOINT lShldr
        {
          OFFSET 8.77824 -1.95073 1.46304
          CHANNELS 3 Zrotation Xrotation Yrotation
          JOINT lForeArm
          {
            OFFSET 28.1742 -1.7115 0.48768
            CHANNELS 3 Zrotation Xrotation Yrotation
            JOINT lHand
            {
              OFFSET 22.5879 0.773209 7.07136
              CHANNELS 3 Zrotation Xrotation Yrotation
              JOINT lThumb1
              {
                OFFSET 1.2192 -0.487915 3.41376
                CHANNELS 3 Zrotation Xrotation Yrotation
                JOINT lThumb2
                {
                  OFFSET 3.37035 -0.52449 3.41376
                  CHANNELS 3 Zrotation Xrotation Yrotation
                  End Site
                  {
                    OFFSET 1.78271 -1.18214 1.43049
                  }
                }
              }
              JOINT lIndex1
              {
                OFFSET 7.75947 0.938293 5.60832
                CHANNELS 3 Zrotation Xrotation Yrotation
                JOINT lIndex2
                {
                  OFFSET 2.54057 -0.884171 1.56538
                  CHANNELS 3 Zrotation Xrotation Yrotation
                  End Site
                  {
                    OFFSET 1.62519 -0.234802 1.16502
                  }
                }
              }
              JOINT lMid1
              {
                OFFSET 8.24714 1.18213 3.41376
                CHANNELS 3 Zrotation Xrotation Yrotation
                JOINT lMid2
                {
                  OFFSET 3.10165 -0.590103 1.0647
                  CHANNELS 3 Zrotation Xrotation Yrotation
                  End Site
                  {
                    OFFSET 2.48547 -0.328903 0.83742
                  }
                }
              }
              JOINT lRing1
              {
                OFFSET 8.82822 0.546677 1.51678
                CHANNELS 3 Zrotation Xrotation Yrotation
                JOINT lRing2
                {
                  OFFSET 2.60934 -0.819778 -0.0198488
                  CHANNELS 3 Zrotation Xrotation Yrotation
                  End Site
                  {
                    OFFSET 2.33842 -0.294052 0.168128
                  }
                }
              }
              JOINT lPinky1
              {
                OFFSET 8.27202 -0.0477905 -0.4584
                CHANNELS 3 Zrotation Xrotation Yrotation
                JOINT lPinky2
                {
                  OFFSET 1.82734 -0.647385 -0.700984
                  CHANNELS 3 Zrotation Xrotation Yrotation
                  End Site
                  {
                    OFFSET 1.69225 -0.51767 -0.607171
                  }
                }
              }
            }
          }
        }
      }
    }
  }
  JOINT rButtock
  {
    OFFSET -8.77824 4.35084 1.2192
    CHANNELS 3 Zrotation Xrotation Yrotation
    JOINT rThigh
    {
      OFFSET 0 -1.70687 -2.19456
      CHANNELS 3 Zrotation Xrotation Yrotation
      JOINT rShin
      {
        OFFSET 0 -36.8199 0.73152
        CHANNELS 3 Zrotation Xrotation Yrotation
        JOINT rFoot
        {
          OFFSET 0.73152 -45.1104 -5.12064
          CHANNELS 3 Zrotation Xrotation Yrotation
          End Site
          {
            OFFSET -1.1221 -3.69964 12.103
          }
        }
      }
    }
  }
  JOINT lButtock
  {
    OFFSET 8.77824 4.35084 1.2192
    CHANNELS 3 Zrotation Xrotation Yrotation
    JOINT lThigh
    {
      OFFSET 0 -1.70687 -2.19456
      CHANNELS 3 Zrotation Xrotation Yrotation
      JOINT lShin
      {
        OFFSET 0 -36.8199 0.73152
        CHANNELS 3 Zrotation Xrotation Yrotation
        JOINT lFoot
        {
          OFFSET -0.73152 -45.1104 -5.12064
          CHANNELS 3 Zrotation Xrotation Yrotation
          End Site
          {
            OFFSET 1.1221 -3.69964 12.103
          }
        }
      }
    }
  }
}
MOTION
Frames:	8
Frame Time:	0.00833333
0.0 0.0 0.0 0.0 0.0 0.0 0.0 0.0 0.0 0.0 0.0 0.0 0.0 0.0 0.0 0.0 0.0 0.0 0.0 0.0 0.0 0.0 0.0 0.0 0.0 0.0 0.0 0.0 0.0 0.0 0.0 0.0 0.0 0.0 0.0 0.0 0.0 0.0 0.0 0.0 0.0 0.0 0.0 0.0 0.0 0.0 0.0 0.0 0.0 0.0 0.0 0.0 0.0 0.0 0.0 0.0 0.0 0.0 0.0 0.0 0.0 0.0 0.0 0.0 0.0 0.0 0.0 0.0 0.0 0.0 0.0 0.0 0.0 0.0 0.0 0.0 0.0 0.0 0.0 0.0 0.0 0.0 0.0 0.0 0.0 0.0 0.0 0.0 0.0 0.0 0.0 0.0 0.0 0.0 0.0 0.0 0.0 0.0 0.0 0.0 0.0 0.0 0.0 0.0 0.0 0.0 0.0 0.0 0.0 0.0 0.0 0.0 0.0 0.0 0.0 0.0 0.0 0.0 0.0 0.0 0.0 0.0 0.0 0.0 0.0 0.0 0.0 0.0 0.0 0.0 0.0 0.0
-93.6874 84.25110000000001 -0.5352 -107.328697 88.053783 -95.851385 0.546808 -4.792386 24.174827 0.978919 0.802511 -23.34606 11.383253 14.27822 113.808324 -7.319084 16.201017 -120.236519 -0.002353 0.0 -0.002355 0.003175 -0.0 -0.001969 -0.048692 0.292347 0.065685 24.853273 9.528948 -0.461383 86.506458 -65.749494 77.626551 -95.874842 77.08675 77.953354 -166.632546 -4.304518 89.770706 176.805953 -19.361491 92.486882 -166.822856 -43.973454 122.061837 -157.159978 -12.461079 119.153795 -164.638453 -19.283633 144.733258 3.388487 -0.625743 0.274197 -145.118776 0.267714 -179.212566 -66.993318 87.685022 80.241381 12.988181 44.344278 10.762415 -127.861471 -30.889127 -125.365528 14.147447 43.061859 -15.995445 145.272381 7.504228 -163.768359 66.615392 -77.508058 105.39354 -146.390474 -55.5205 -127.163238 171.65416 -9.335973 -89.949558 155.562893 2.027783 -81.238603 27.422668 30.638581 -20.099352 169.123999 -19.42699 -110.695966 -89.036016 -81.392196 -59.761331 42.446506 58.389966 -36.314308 145.101378 -1.523528 178.650675 -11.682642 20.323277 6.650895 -44.716789 86.378807 5.350826 -9.52576 24.934541 -4.806737 0.0 0.000355 -0.001665 1.183812 -7.625595 8.851201 5.983585 16.879341 158.148698 -89.118688 12.17202 -176.922885 -0.0 0.000304 0.000944 1.237132 -5.321543 0.139232 -7.687139 7.535785 -96.591835 -0.002329 36.163213 92.631857
-93.7268 84.24430000000001 -0.5235 -109.173373 87.963373 -97.514459 2.670554 -14.189775 -180.0 1.058664 -6.656919 -178.062564 10.549143 18.164197 123.579614 -6.931496 18.575728 -136.638696 0.00405 0.0 0.000477 0.003895 -0.0 -0.000535 -78.728494 68.389882 81.807847 3.456203 13.97412 53.487514 -174.660791 -58.785595 -164.338949 -5.627847 34.457379 2.720589 51.060347 -41.203864 12.856114 -15.03261 -8.482189 -17.086436 37.216288 -57.917673 -0.643777 -153.423546 -9.393999 113.616593 -160.671542 -6.668157 143.245053 2.937196 0.828829 0.471418 -145.120432 0.267665 -179.212626 11.900523 29.602702 -5.639829 -146.227038 15.4703 -142.747459 3.622823 3.567285 -0.928466 155.614011 -4.236418 -161.991002 45.89434 43.461959 -18.76333 -33.376535 3.173378 29.268755 168.195601 43.716568 -141.035333 78.030863 38.690159 -42.412242 -0.579708 -14.096004 -24.823378 12.943532 17.783959 -8.597615 8.412035 22.437359 -6.242599 -5.893409 -18.35197 2.54278 13.441614 36.397877 -10.642192 67.607776 -72.074914 84.373648 150.661872 -14.334377 -178.076094 4.660276 -10.866537 4.363977 -10.272543 24.736302 -5.893969 179.997929 75.749986 -0.0 -175.455511 64.787504 -5.02068 -6.377685 15.561699 -95.332321 158.753864 10.834196 -80.718386 0.007248 -0.000343 0.007248 3.062938 -10.682143 -163.897769 4.795884 -11.643976 89.901831 155.652155 -28.829218 -100.489005
-93.77069999999999 84.2372 -0.5095 -110.077784 87.875067 -98.218947 3.808736 -18.504826 -180.0 1.66282 -7.5049 -177.143802 -9.511298 16.965278 -81.984931 14.883829 5.740766 64.878569 -0.001126 -0.0 0.000563 -0.001126 -0.0 0.000563 -155.716537 -4.925313 162.135731 123.493497 -34.193987 170.558609 179.016546 64.768091 127.207224 150.296247 -40.205281 137.056599 6.463912 -6.452572 -0.635709 -91.835513 23.070906 82.584318 -10.679505 15.143691 6.941532 -66.679236 48.45677 49.907502 -161.15406 -8.160292 143.466095 -7.50086 26.111378 6.444191 -145.118917 0.240393 -179.203746 -156.509131 15.229587 178.987083 32.030969 83.31987 6.215114 -156.162577 37.501305 -147.239861 59.830895 -86.72168 81.631098 177.912647 8.531348 126.460858 149.846404 86.323347 -100.177708 -165.263608 -27.942808 -141.807132 -81.275999 -49.995147 -32.240919 50.806996 27.564283 -12.617821 162.639065 -37.465162 -122.648199 61.067194 57.240808 -46.965394 36.037106 51.722942 -29.83217 4.440094 20.478789 -4.265847 145.100665 -1.521483 178.650922 6.818051 -61.115314 27.915238 132.780545 -17.595488 130.285304 -45.913903 79.991147 9.039875 179.992606 75.750421 0.007628 -173.386141 59.803986 -141.988964 -18.921146 -14.542826 -73.088638 23.177923 28.020808 -161.842422 0.0 0.001072 -0.001787 4.206774 -11.242054 0.903663 -8.237209 12.060654 -92.551075 5.449008 78.403604 81.708315
-93.8054 84.232 -0.4929 -107.871066 87.836312 -95.856388 3.026436 -17.366362 41.602904 2.281255 3.263759 -38.816621 7.93142 10.251402 53.960695 -11.24604 4.424088 -76.37822 0.002952 0.0 0.000627 0.002952 0.0 0.000627 1.989978 -14.052821 -2.882331 97.771961 30.504847 -19.029565 -48.449968 31.068867 20.707593 18.002068 -26.141695 14.607771 -1.846999 1.813391 0.312915 26.804615 -42.078615 -15.585815 -46.208225 39.653357 36.317884 12.990244 -9.738366 -3.37794 -172.973107 -43.923877 144.946305 143.664902 -74.434132 111.997747 0.004745 1.770214 0.557729 6.632951 30.473182 4.839819 0.096933 0.258484 0.092161 1.393915 -2.961723 -0.92063 44.909731 -86.288742 66.517008 78.599527 -16.416312 92.420571 -13.339842 8.617067 57.205064 -170.883021 -12.853698 -144.668173 94.79109 37.828442 -54.28419 130.320646 -18.718776 -76.489343 -37.216917 -57.917481 0.643916 15.536831 37.649007 -13.122657 -173.123221 -66.29783 -137.612933 164.202509 -7.000118 -143.28485 145.120505 1.975533 179.748644 154.289128 -12.730491 177.476341 158.214179 60.369048 150.801319 162.614985 55.673207 147.319844 0.001954 0.001233 -0.0 3.182807 -15.84889 -0.0 -7.340667 18.276433 -85.749296 87.781181 59.978408 8.222616 -179.996082 75.750319 -0.004043 -171.339578 61.501711 60.424798 20.275925 6.627118 85.434627 90.629283 55.286789 167.476521
-93.8209 84.2292 -0.4718 -107.55689 87.738396 -95.472687 3.613309 -22.295888 143.114753 5.426735 -5.833802 -139.714179 -9.148022 15.691464 -63.608573 13.379056 0.776261 41.507036 -0.00397 0.0 -0.000585 0.001753 -0.0 -0.000514 4.238721 -44.742744 -8.648518 -128.229188 32.694879 -122.449228 -92.629544 -59.035484 -82.195711 5.338431 8.586379 6.772192 -0.543714 0.53628 0.086451 -37.279671 26.013287 33.604017 12.21816 -21.784338 -5.118757 -171.567473 -30.664664 108.468239 -160.673238 -6.66784 143.24516 -3.345015 17.312092 3.698034 -73.624759 72.973461 91.553588 -158.570923 -29.228527 -179.632157 -140.595256 -1.003913 -137.668811 -148.012063 13.818389 -142.222089 149.905423 22.4218 -154.975344 -58.176839 -60.130715 -128.630013 -140.199912 -3.411907 -152.93964 162.122768 53.937782 -137.268252 -174.053434 -22.870685 -88.062939 122.669314 20.050069 -60.800377 148.88798 -12.609436 -120.24434 -12.064824 -2.695456 10.121736 160.574431 -6.359045 -143.198591 -2.98071 0.69584 -0.452868 74.841093 72.960276 -92.828253 -5.111718 28.347554 0.71811 23.390315 -36.350336 22.491472 112.411639 -43.591418 111.985439 0.000113 -9.4e-05 -0.000145 3.478627 -18.966054 -180.0 7.502664 -21.914637 88.027162 124.086695 62.087588 -27.726761 0.000113 -9.4e-05 -0.000145 5.846705 -14.027647 0.0 -8.513733 12.630866 -76.458781 50.219988 71.103673 38.067889
-93.8222 84.2282 -0.45580000000000004 -108.765618 87.635537 -96.677198 5.224726 -22.727435 -180.0 2.342758 -8.411914 -176.253964 -0.078385 27.93304 -162.01832 10.346839 21.83798 136.311876 0.002909 -0.0 -0.001498 0.002909 -0.0 -0.001498 -150.168288 21.535104 155.275028 86.890659 -26.71393 146.577504 -105.000631 67.218546 52.198811 93.922428 -63.169744 85.863607 -0.490951 0.484877 0.07841 -13.237173 13.469922 11.688519 -132.541178 13.160804 110.915442 111.266748 -69.861699 59.400779 -17.371071 35.631636 12.955773 -88.607579 64.038397 80.465108 0.000796 0.063942 0.019815 -52.79927 -86.67123 -74.294346 -12.3742 -24.157774 -11.759048 -81.809702 -54.215272 -81.857636 0.122356 0.727012 -0.162101 79.585979 -14.955698 -176.237804 1.881889 -14.406194 58.463014 -161.404424 -35.258052 -139.547318 2.813838 2.754137 -0.499263 0.751083 1.480583 -2.460525 108.427737 34.160761 -91.742702 159.73319 -2.669806 -115.614041 22.005197 41.0409 -17.007629 4.603684 20.812599 -4.322019 0.000982 -0.018494 0.005763 -11.195775 -15.763557 1.939061 -25.916873 79.093722 -10.833867 155.871805 36.701728 147.237856 -0.0 0.000979 0.000896 3.52855 -16.678061 1.081077 6.730812 18.823195 101.241364 -83.065871 -47.380087 -163.76537 179.990799 75.747766 0.006295 -166.809621 59.293173 -128.908966 -19.744345 -7.183472 -124.170955 -170.8813 13.015538 98.773621
-93.82549999999999 84.2278 -0.4393 -109.585502 87.531306 -97.483821 5.086331 -17.386471 1.72623 -2.083972 3.649951 1.649804 8.409128 10.57559 54.332737 -11.746031 5.076518 -77.365518 0.000508 0.0 0.000288 0.000508 0.0 0.000288 -129.782792 55.044864 133.631397 -107.868277 4.614489 69.039017 -163.338397 39.28372 -163.636607 -4.249425 38.754849 4.693753 -0.491526 0.484728 0.077094 -3.00207 3.65772 2.829653 -166.822458 -43.973503 122.062083 110.415347 -70.70449 53.472435 -36.037096 51.722782 29.832607 -163.095062 -4.756898 143.252903 -145.122809 1.080009 -179.4686 -148.207041 -43.035713 -170.60702 -111.96155 -40.577553 -110.003002 -4.872159 -17.703259 -8.323318 -2.459655 -18.216433 3.668413 82.843737 -9.592913 164.576066 -171.130278 11.148234 156.507492 14.815219 43.291443 -4.543906 143.808487 16.627937 -83.798143 149.29938 -8.295311 -72.723941 150.730295 -16.002028 -120.924284 -3.529304 14.68916 6.915684 158.520993 -0.192583 -142.144153 170.256103 -25.746112 -143.887613 0.002174 -0.018569 0.005543 -10.311185 0.334075 0.025594 136.961156 -9.523484 134.261335 126.235779 -29.683457 124.212327 179.996992 75.749311 0.002475 -173.608029 56.976933 180.0 5.025746 -21.328572 89.86506 117.699658 54.656815 -21.535721 -0.000609 0.000331 -0.000609 6.164354 -15.913017 -158.499303 2.722177 -16.002735 89.28577 136.036633 -72.484852 -136.574592
